<mxfile host="Electron" agent="Mozilla/5.0 (X11; Linux x86_64) AppleWebKit/537.36 (KHTML, like Gecko) draw.io/26.1.1 Chrome/132.0.6834.210 Electron/34.3.3 Safari/537.36" version="26.1.1">
  <diagram name="Page-1" id="X39ThlXB1tN9I0cOShlH">
    <mxGraphModel dx="1195" dy="699" grid="1" gridSize="10" guides="1" tooltips="1" connect="1" arrows="1" fold="1" page="1" pageScale="1" pageWidth="850" pageHeight="1100" math="0" shadow="0">
      <root>
        <mxCell id="0" />
        <mxCell id="1" parent="0" />
        <mxCell id="0JduBOTFQv5LzCg-o4Lk-17" style="edgeStyle=orthogonalEdgeStyle;curved=1;rounded=0;orthogonalLoop=1;jettySize=auto;html=1;exitX=1;exitY=0;exitDx=0;exitDy=0;entryX=0.5;entryY=1;entryDx=0;entryDy=0;" edge="1" parent="1" source="0JduBOTFQv5LzCg-o4Lk-15" target="0JduBOTFQv5LzCg-o4Lk-16">
          <mxGeometry relative="1" as="geometry" />
        </mxCell>
        <mxCell id="0JduBOTFQv5LzCg-o4Lk-49" value="BRIGHT_TO_DARK" style="edgeLabel;html=1;align=center;verticalAlign=middle;resizable=0;points=[];" vertex="1" connectable="0" parent="0JduBOTFQv5LzCg-o4Lk-17">
          <mxGeometry x="0.1143" relative="1" as="geometry">
            <mxPoint as="offset" />
          </mxGeometry>
        </mxCell>
        <mxCell id="0JduBOTFQv5LzCg-o4Lk-27" style="edgeStyle=orthogonalEdgeStyle;curved=1;rounded=0;orthogonalLoop=1;jettySize=auto;html=1;exitX=1;exitY=1;exitDx=0;exitDy=0;entryX=1;entryY=0.5;entryDx=0;entryDy=0;" edge="1" parent="1" source="0JduBOTFQv5LzCg-o4Lk-15" target="0JduBOTFQv5LzCg-o4Lk-24">
          <mxGeometry relative="1" as="geometry" />
        </mxCell>
        <mxCell id="0JduBOTFQv5LzCg-o4Lk-51" value="clicked_once" style="edgeLabel;html=1;align=center;verticalAlign=middle;resizable=0;points=[];" vertex="1" connectable="0" parent="0JduBOTFQv5LzCg-o4Lk-27">
          <mxGeometry x="-0.3568" y="-4" relative="1" as="geometry">
            <mxPoint as="offset" />
          </mxGeometry>
        </mxCell>
        <mxCell id="0JduBOTFQv5LzCg-o4Lk-34" style="edgeStyle=orthogonalEdgeStyle;curved=1;rounded=0;orthogonalLoop=1;jettySize=auto;html=1;exitX=1;exitY=0.5;exitDx=0;exitDy=0;entryX=0.5;entryY=0;entryDx=0;entryDy=0;" edge="1" parent="1" source="0JduBOTFQv5LzCg-o4Lk-15" target="0JduBOTFQv5LzCg-o4Lk-33">
          <mxGeometry relative="1" as="geometry" />
        </mxCell>
        <mxCell id="0JduBOTFQv5LzCg-o4Lk-50" value="clicked_once" style="edgeLabel;html=1;align=center;verticalAlign=middle;resizable=0;points=[];" vertex="1" connectable="0" parent="0JduBOTFQv5LzCg-o4Lk-34">
          <mxGeometry x="0.2513" y="-29" relative="1" as="geometry">
            <mxPoint x="-1" as="offset" />
          </mxGeometry>
        </mxCell>
        <mxCell id="0JduBOTFQv5LzCg-o4Lk-15" value="IDLE_OFF" style="ellipse;whiteSpace=wrap;html=1;" vertex="1" parent="1">
          <mxGeometry x="400" y="520" width="120" height="80" as="geometry" />
        </mxCell>
        <mxCell id="0JduBOTFQv5LzCg-o4Lk-19" style="edgeStyle=orthogonalEdgeStyle;curved=1;rounded=0;orthogonalLoop=1;jettySize=auto;html=1;exitX=0.5;exitY=0;exitDx=0;exitDy=0;entryX=1;entryY=0.5;entryDx=0;entryDy=0;" edge="1" parent="1" source="0JduBOTFQv5LzCg-o4Lk-16" target="0JduBOTFQv5LzCg-o4Lk-18">
          <mxGeometry relative="1" as="geometry" />
        </mxCell>
        <mxCell id="0JduBOTFQv5LzCg-o4Lk-16" value="OFF_TO_ON&lt;br&gt;when ambience is DARK" style="ellipse;whiteSpace=wrap;html=1;" vertex="1" parent="1">
          <mxGeometry x="340" y="370" width="120" height="80" as="geometry" />
        </mxCell>
        <mxCell id="0JduBOTFQv5LzCg-o4Lk-21" style="edgeStyle=orthogonalEdgeStyle;curved=1;rounded=0;orthogonalLoop=1;jettySize=auto;html=1;exitX=0;exitY=0.5;exitDx=0;exitDy=0;" edge="1" parent="1" source="0JduBOTFQv5LzCg-o4Lk-18" target="0JduBOTFQv5LzCg-o4Lk-20">
          <mxGeometry relative="1" as="geometry" />
        </mxCell>
        <mxCell id="0JduBOTFQv5LzCg-o4Lk-58" value="timeout (30mins)" style="edgeLabel;html=1;align=center;verticalAlign=middle;resizable=0;points=[];" vertex="1" connectable="0" parent="0JduBOTFQv5LzCg-o4Lk-21">
          <mxGeometry x="0.2097" y="10" relative="1" as="geometry">
            <mxPoint x="10" y="5" as="offset" />
          </mxGeometry>
        </mxCell>
        <mxCell id="0JduBOTFQv5LzCg-o4Lk-18" value="ON" style="ellipse;whiteSpace=wrap;html=1;" vertex="1" parent="1">
          <mxGeometry x="140" y="310" width="120" height="80" as="geometry" />
        </mxCell>
        <mxCell id="0JduBOTFQv5LzCg-o4Lk-23" style="edgeStyle=orthogonalEdgeStyle;curved=1;rounded=0;orthogonalLoop=1;jettySize=auto;html=1;exitX=1;exitY=0.5;exitDx=0;exitDy=0;entryX=0;entryY=0.5;entryDx=0;entryDy=0;" edge="1" parent="1" source="0JduBOTFQv5LzCg-o4Lk-20" target="0JduBOTFQv5LzCg-o4Lk-15">
          <mxGeometry relative="1" as="geometry" />
        </mxCell>
        <mxCell id="0JduBOTFQv5LzCg-o4Lk-59" value="reset everything" style="edgeLabel;html=1;align=center;verticalAlign=middle;resizable=0;points=[];" vertex="1" connectable="0" parent="0JduBOTFQv5LzCg-o4Lk-23">
          <mxGeometry x="-0.0679" y="-1" relative="1" as="geometry">
            <mxPoint as="offset" />
          </mxGeometry>
        </mxCell>
        <mxCell id="0JduBOTFQv5LzCg-o4Lk-20" value="ON_TO_OFF" style="ellipse;whiteSpace=wrap;html=1;" vertex="1" parent="1">
          <mxGeometry x="10" y="520" width="120" height="80" as="geometry" />
        </mxCell>
        <mxCell id="0JduBOTFQv5LzCg-o4Lk-32" style="edgeStyle=orthogonalEdgeStyle;curved=1;rounded=0;orthogonalLoop=1;jettySize=auto;html=1;exitX=0;exitY=0.5;exitDx=0;exitDy=0;entryX=0.5;entryY=1;entryDx=0;entryDy=0;" edge="1" parent="1" source="0JduBOTFQv5LzCg-o4Lk-24" target="0JduBOTFQv5LzCg-o4Lk-28">
          <mxGeometry relative="1" as="geometry" />
        </mxCell>
        <mxCell id="0JduBOTFQv5LzCg-o4Lk-24" value="OFF_TO_ON&lt;br&gt;when ambience is BRIGHT" style="ellipse;whiteSpace=wrap;html=1;" vertex="1" parent="1">
          <mxGeometry x="310" y="730" width="120" height="80" as="geometry" />
        </mxCell>
        <mxCell id="0JduBOTFQv5LzCg-o4Lk-31" style="edgeStyle=orthogonalEdgeStyle;curved=1;rounded=0;orthogonalLoop=1;jettySize=auto;html=1;exitX=0;exitY=0.5;exitDx=0;exitDy=0;entryX=0.5;entryY=1;entryDx=0;entryDy=0;" edge="1" parent="1" source="0JduBOTFQv5LzCg-o4Lk-28" target="0JduBOTFQv5LzCg-o4Lk-20">
          <mxGeometry relative="1" as="geometry" />
        </mxCell>
        <mxCell id="0JduBOTFQv5LzCg-o4Lk-54" value="clicked_once" style="edgeLabel;html=1;align=center;verticalAlign=middle;resizable=0;points=[];" vertex="1" connectable="0" parent="0JduBOTFQv5LzCg-o4Lk-31">
          <mxGeometry x="0.1548" y="-16" relative="1" as="geometry">
            <mxPoint x="14" as="offset" />
          </mxGeometry>
        </mxCell>
        <mxCell id="0JduBOTFQv5LzCg-o4Lk-28" value="ON" style="ellipse;whiteSpace=wrap;html=1;" vertex="1" parent="1">
          <mxGeometry x="140" y="650" width="120" height="80" as="geometry" />
        </mxCell>
        <mxCell id="0JduBOTFQv5LzCg-o4Lk-36" style="edgeStyle=orthogonalEdgeStyle;curved=1;rounded=0;orthogonalLoop=1;jettySize=auto;html=1;exitX=0.5;exitY=1;exitDx=0;exitDy=0;entryX=1;entryY=0.5;entryDx=0;entryDy=0;" edge="1" parent="1" source="0JduBOTFQv5LzCg-o4Lk-33" target="0JduBOTFQv5LzCg-o4Lk-35">
          <mxGeometry relative="1" as="geometry" />
        </mxCell>
        <mxCell id="0JduBOTFQv5LzCg-o4Lk-33" value="OFF_TO_ON&lt;br&gt;when ambience is DARK" style="ellipse;whiteSpace=wrap;html=1;" vertex="1" parent="1">
          <mxGeometry x="620" y="760" width="120" height="80" as="geometry" />
        </mxCell>
        <mxCell id="0JduBOTFQv5LzCg-o4Lk-39" style="edgeStyle=orthogonalEdgeStyle;curved=1;rounded=0;orthogonalLoop=1;jettySize=auto;html=1;exitX=0;exitY=0.5;exitDx=0;exitDy=0;entryX=0;entryY=1;entryDx=0;entryDy=0;" edge="1" parent="1" source="0JduBOTFQv5LzCg-o4Lk-35" target="0JduBOTFQv5LzCg-o4Lk-20">
          <mxGeometry relative="1" as="geometry" />
        </mxCell>
        <mxCell id="0JduBOTFQv5LzCg-o4Lk-56" value="clicked_once" style="edgeLabel;html=1;align=center;verticalAlign=middle;resizable=0;points=[];" vertex="1" connectable="0" parent="0JduBOTFQv5LzCg-o4Lk-39">
          <mxGeometry x="-0.448" y="-60" relative="1" as="geometry">
            <mxPoint as="offset" />
          </mxGeometry>
        </mxCell>
        <mxCell id="0JduBOTFQv5LzCg-o4Lk-35" value="ON" style="ellipse;whiteSpace=wrap;html=1;" vertex="1" parent="1">
          <mxGeometry x="330" y="940" width="120" height="80" as="geometry" />
        </mxCell>
        <mxCell id="0JduBOTFQv5LzCg-o4Lk-41" style="edgeStyle=orthogonalEdgeStyle;curved=1;rounded=0;orthogonalLoop=1;jettySize=auto;html=1;exitX=1;exitY=0.5;exitDx=0;exitDy=0;entryX=0;entryY=0.5;entryDx=0;entryDy=0;" edge="1" parent="1" source="0JduBOTFQv5LzCg-o4Lk-37" target="0JduBOTFQv5LzCg-o4Lk-33">
          <mxGeometry relative="1" as="geometry" />
        </mxCell>
        <mxCell id="0JduBOTFQv5LzCg-o4Lk-53" value="ambience is DARK" style="edgeLabel;html=1;align=center;verticalAlign=middle;resizable=0;points=[];" vertex="1" connectable="0" parent="0JduBOTFQv5LzCg-o4Lk-41">
          <mxGeometry x="-0.0988" y="3" relative="1" as="geometry">
            <mxPoint as="offset" />
          </mxGeometry>
        </mxCell>
        <mxCell id="0JduBOTFQv5LzCg-o4Lk-48" style="edgeStyle=orthogonalEdgeStyle;curved=1;rounded=0;orthogonalLoop=1;jettySize=auto;html=1;exitX=1;exitY=0;exitDx=0;exitDy=0;entryX=0.5;entryY=1;entryDx=0;entryDy=0;" edge="1" parent="1" source="0JduBOTFQv5LzCg-o4Lk-37" target="0JduBOTFQv5LzCg-o4Lk-24">
          <mxGeometry relative="1" as="geometry">
            <Array as="points">
              <mxPoint x="412" y="830" />
              <mxPoint x="370" y="830" />
            </Array>
          </mxGeometry>
        </mxCell>
        <mxCell id="0JduBOTFQv5LzCg-o4Lk-52" value="clicked_once" style="edgeLabel;html=1;align=center;verticalAlign=middle;resizable=0;points=[];" vertex="1" connectable="0" parent="0JduBOTFQv5LzCg-o4Lk-48">
          <mxGeometry x="-0.0498" y="1" relative="1" as="geometry">
            <mxPoint x="6" as="offset" />
          </mxGeometry>
        </mxCell>
        <mxCell id="0JduBOTFQv5LzCg-o4Lk-37" value="DISABLE" style="ellipse;whiteSpace=wrap;html=1;" vertex="1" parent="1">
          <mxGeometry x="310" y="840" width="120" height="80" as="geometry" />
        </mxCell>
        <mxCell id="0JduBOTFQv5LzCg-o4Lk-40" style="edgeStyle=orthogonalEdgeStyle;curved=1;rounded=0;orthogonalLoop=1;jettySize=auto;html=1;exitX=0;exitY=0;exitDx=0;exitDy=0;entryX=0.333;entryY=0.966;entryDx=0;entryDy=0;entryPerimeter=0;" edge="1" parent="1" source="0JduBOTFQv5LzCg-o4Lk-37" target="0JduBOTFQv5LzCg-o4Lk-20">
          <mxGeometry relative="1" as="geometry" />
        </mxCell>
        <mxCell id="0JduBOTFQv5LzCg-o4Lk-55" value="timeout (20mins)" style="edgeLabel;html=1;align=center;verticalAlign=middle;resizable=0;points=[];" vertex="1" connectable="0" parent="0JduBOTFQv5LzCg-o4Lk-40">
          <mxGeometry x="-0.3677" y="-36" relative="1" as="geometry">
            <mxPoint x="21" y="4" as="offset" />
          </mxGeometry>
        </mxCell>
        <mxCell id="0JduBOTFQv5LzCg-o4Lk-45" style="edgeStyle=orthogonalEdgeStyle;curved=1;rounded=0;orthogonalLoop=1;jettySize=auto;html=1;exitX=0;exitY=0;exitDx=0;exitDy=0;entryX=0;entryY=1;entryDx=0;entryDy=0;" edge="1" parent="1" source="0JduBOTFQv5LzCg-o4Lk-35" target="0JduBOTFQv5LzCg-o4Lk-37">
          <mxGeometry relative="1" as="geometry">
            <Array as="points">
              <mxPoint x="348" y="930" />
              <mxPoint x="328" y="930" />
            </Array>
          </mxGeometry>
        </mxCell>
        <mxCell id="0JduBOTFQv5LzCg-o4Lk-57" value="BRIGHT" style="edgeLabel;html=1;align=center;verticalAlign=middle;resizable=0;points=[];" vertex="1" connectable="0" parent="0JduBOTFQv5LzCg-o4Lk-45">
          <mxGeometry x="-0.2057" relative="1" as="geometry">
            <mxPoint as="offset" />
          </mxGeometry>
        </mxCell>
      </root>
    </mxGraphModel>
  </diagram>
</mxfile>
